<mxfile host="Electron" agent="Mozilla/5.0 (Macintosh; Intel Mac OS X 10_15_7) AppleWebKit/537.36 (KHTML, like Gecko) draw.io/24.7.5 Chrome/126.0.6478.183 Electron/31.3.0 Safari/537.36" version="24.7.5" pages="4">
  <diagram name="resource-connector-types" id="IMfhUJ0kENWqfCzqepWq">
    <mxGraphModel dx="1242" dy="806" grid="1" gridSize="10" guides="1" tooltips="1" connect="1" arrows="1" fold="1" page="1" pageScale="1" pageWidth="827" pageHeight="1169" math="0" shadow="0">
      <root>
        <mxCell id="0" />
        <mxCell id="1" parent="0" />
        <mxCell id="mkdmuHdhpeaHbkRN50OY-8" value="View Server" style="rounded=0;whiteSpace=wrap;html=1;verticalAlign=top;fillColor=#d5e8d4;strokeColor=#82b366;" parent="1" vertex="1">
          <mxGeometry x="40" y="90" width="780" height="200" as="geometry" />
        </mxCell>
        <mxCell id="mkdmuHdhpeaHbkRN50OY-9" value="Runtime Manager OMVS" style="rounded=1;whiteSpace=wrap;html=1;verticalAlign=top;fillColor=#e1d5e7;strokeColor=#9673a6;" parent="1" vertex="1">
          <mxGeometry x="58" y="130" width="745" height="130" as="geometry" />
        </mxCell>
        <mxCell id="mkdmuHdhpeaHbkRN50OY-10" value="OMAG Server Platform" style="rounded=0;whiteSpace=wrap;html=1;fillColor=#fff2cc;strokeColor=#d6b656;" parent="1" vertex="1">
          <mxGeometry x="99" y="338" width="120" height="60" as="geometry" />
        </mxCell>
        <mxCell id="mkdmuHdhpeaHbkRN50OY-12" value="OMAG Server Platform Connector" style="ellipse;whiteSpace=wrap;html=1;" parent="1" vertex="1">
          <mxGeometry x="99" y="160" width="120" height="80" as="geometry" />
        </mxCell>
        <mxCell id="r7_0W7fRSCrbMH6WtfxE-19" style="edgeStyle=orthogonalEdgeStyle;rounded=0;orthogonalLoop=1;jettySize=auto;html=1;exitX=0.5;exitY=1;exitDx=0;exitDy=0;" edge="1" parent="1" source="r7_0W7fRSCrbMH6WtfxE-5" target="r7_0W7fRSCrbMH6WtfxE-16">
          <mxGeometry relative="1" as="geometry" />
        </mxCell>
        <mxCell id="r7_0W7fRSCrbMH6WtfxE-5" value="Engine Host Connector" style="ellipse;whiteSpace=wrap;html=1;" vertex="1" parent="1">
          <mxGeometry x="233" y="160" width="120" height="80" as="geometry" />
        </mxCell>
        <mxCell id="r7_0W7fRSCrbMH6WtfxE-20" style="edgeStyle=orthogonalEdgeStyle;rounded=0;orthogonalLoop=1;jettySize=auto;html=1;exitX=0.5;exitY=1;exitDx=0;exitDy=0;" edge="1" parent="1" source="r7_0W7fRSCrbMH6WtfxE-6" target="r7_0W7fRSCrbMH6WtfxE-14">
          <mxGeometry relative="1" as="geometry" />
        </mxCell>
        <mxCell id="r7_0W7fRSCrbMH6WtfxE-6" value="Integration Daemon Connector" style="ellipse;whiteSpace=wrap;html=1;" vertex="1" parent="1">
          <mxGeometry x="369" y="160" width="120" height="80" as="geometry" />
        </mxCell>
        <mxCell id="r7_0W7fRSCrbMH6WtfxE-21" style="edgeStyle=orthogonalEdgeStyle;rounded=0;orthogonalLoop=1;jettySize=auto;html=1;exitX=0.5;exitY=1;exitDx=0;exitDy=0;" edge="1" parent="1" source="r7_0W7fRSCrbMH6WtfxE-7" target="r7_0W7fRSCrbMH6WtfxE-12">
          <mxGeometry relative="1" as="geometry" />
        </mxCell>
        <mxCell id="r7_0W7fRSCrbMH6WtfxE-7" value="Metadata Access Server Connector" style="ellipse;whiteSpace=wrap;html=1;" vertex="1" parent="1">
          <mxGeometry x="509" y="160" width="120" height="80" as="geometry" />
        </mxCell>
        <mxCell id="r7_0W7fRSCrbMH6WtfxE-22" style="edgeStyle=orthogonalEdgeStyle;rounded=0;orthogonalLoop=1;jettySize=auto;html=1;exitX=0.5;exitY=1;exitDx=0;exitDy=0;entryX=1;entryY=0.5;entryDx=0;entryDy=0;" edge="1" parent="1" source="r7_0W7fRSCrbMH6WtfxE-8" target="mkdmuHdhpeaHbkRN50OY-8">
          <mxGeometry relative="1" as="geometry">
            <Array as="points">
              <mxPoint x="706" y="320" />
              <mxPoint x="869" y="320" />
              <mxPoint x="869" y="190" />
            </Array>
          </mxGeometry>
        </mxCell>
        <mxCell id="RubL19K8LmRTTVqY1R9R-1" style="edgeStyle=orthogonalEdgeStyle;rounded=0;orthogonalLoop=1;jettySize=auto;html=1;exitX=0.5;exitY=1;exitDx=0;exitDy=0;" edge="1" parent="1" source="r7_0W7fRSCrbMH6WtfxE-8" target="r7_0W7fRSCrbMH6WtfxE-23">
          <mxGeometry relative="1" as="geometry" />
        </mxCell>
        <mxCell id="r7_0W7fRSCrbMH6WtfxE-8" value="View Server Connector" style="ellipse;whiteSpace=wrap;html=1;" vertex="1" parent="1">
          <mxGeometry x="646" y="160" width="120" height="80" as="geometry" />
        </mxCell>
        <mxCell id="mkdmuHdhpeaHbkRN50OY-11" style="edgeStyle=orthogonalEdgeStyle;rounded=0;orthogonalLoop=1;jettySize=auto;html=1;exitX=0.5;exitY=1;exitDx=0;exitDy=0;" parent="1" source="mkdmuHdhpeaHbkRN50OY-12" target="mkdmuHdhpeaHbkRN50OY-10" edge="1">
          <mxGeometry relative="1" as="geometry" />
        </mxCell>
        <mxCell id="r7_0W7fRSCrbMH6WtfxE-12" value="Metadata Access Server" style="rounded=0;whiteSpace=wrap;html=1;fillColor=#d5e8d4;strokeColor=#82b366;" vertex="1" parent="1">
          <mxGeometry x="509" y="338" width="120" height="60" as="geometry" />
        </mxCell>
        <mxCell id="r7_0W7fRSCrbMH6WtfxE-14" value="Integration&lt;div&gt;Daemon&lt;/div&gt;" style="rounded=0;whiteSpace=wrap;html=1;fillColor=#d5e8d4;strokeColor=#82b366;" vertex="1" parent="1">
          <mxGeometry x="369" y="338" width="120" height="60" as="geometry" />
        </mxCell>
        <mxCell id="r7_0W7fRSCrbMH6WtfxE-16" value="Engine Host" style="rounded=0;whiteSpace=wrap;html=1;fillColor=#d5e8d4;strokeColor=#82b366;" vertex="1" parent="1">
          <mxGeometry x="233" y="338" width="120" height="60" as="geometry" />
        </mxCell>
        <mxCell id="r7_0W7fRSCrbMH6WtfxE-23" value="View Server" style="rounded=0;whiteSpace=wrap;html=1;fillColor=#d5e8d4;strokeColor=#82b366;" vertex="1" parent="1">
          <mxGeometry x="646" y="338" width="120" height="60" as="geometry" />
        </mxCell>
      </root>
    </mxGraphModel>
  </diagram>
  <diagram id="nQQXRkdPemSYCs9S9PbO" name="production-deployment">
    <mxGraphModel dx="1242" dy="806" grid="1" gridSize="10" guides="1" tooltips="1" connect="1" arrows="1" fold="1" page="1" pageScale="1" pageWidth="827" pageHeight="1169" math="0" shadow="0">
      <root>
        <mxCell id="0" />
        <mxCell id="1" parent="0" />
        <mxCell id="tGiQ44Livhm7h5VKEygn-4" value="Frontline OMAG Server Platform" style="rounded=0;whiteSpace=wrap;html=1;verticalAlign=top;fillColor=#fff2cc;strokeColor=#d6b656;" vertex="1" parent="1">
          <mxGeometry x="124" y="170" width="510" height="170" as="geometry" />
        </mxCell>
        <mxCell id="tGiQ44Livhm7h5VKEygn-15" value="View Server" style="rounded=0;whiteSpace=wrap;html=1;fillColor=#d5e8d4;strokeColor=#82b366;verticalAlign=top;" vertex="1" parent="1">
          <mxGeometry x="384" y="200" width="230" height="110" as="geometry" />
        </mxCell>
        <mxCell id="tGiQ44Livhm7h5VKEygn-16" value="OMVS" style="rounded=1;whiteSpace=wrap;html=1;fillColor=#e1d5e7;strokeColor=#9673a6;opacity=80;" vertex="1" parent="1">
          <mxGeometry x="394" y="230" width="80" height="40" as="geometry" />
        </mxCell>
        <mxCell id="tGiQ44Livhm7h5VKEygn-17" value="OMVS" style="rounded=1;whiteSpace=wrap;html=1;fillColor=#e1d5e7;strokeColor=#9673a6;opacity=80;" vertex="1" parent="1">
          <mxGeometry x="404" y="240" width="80" height="40" as="geometry" />
        </mxCell>
        <mxCell id="tGiQ44Livhm7h5VKEygn-18" value="OMVS" style="rounded=1;whiteSpace=wrap;html=1;fillColor=#e1d5e7;strokeColor=#9673a6;" vertex="1" parent="1">
          <mxGeometry x="414" y="250" width="80" height="40" as="geometry" />
        </mxCell>
        <mxCell id="tGiQ44Livhm7h5VKEygn-19" value="OMVS" style="rounded=1;whiteSpace=wrap;html=1;fillColor=#e1d5e7;strokeColor=#9673a6;" vertex="1" parent="1">
          <mxGeometry x="424" y="260" width="80" height="40" as="geometry" />
        </mxCell>
        <mxCell id="tGiQ44Livhm7h5VKEygn-20" value="Runtime Manager&lt;div&gt;OMVS&lt;/div&gt;" style="rounded=1;whiteSpace=wrap;html=1;fillColor=#e1d5e7;strokeColor=#9673a6;" vertex="1" parent="1">
          <mxGeometry x="494" y="240" width="110" height="60" as="geometry" />
        </mxCell>
        <mxCell id="w7QyJEjS1cD8GBYXfVEJ-1" value="Frontline OMAG Server Platform" style="rounded=0;whiteSpace=wrap;html=1;verticalAlign=top;fillColor=#fff2cc;strokeColor=#d6b656;" vertex="1" parent="1">
          <mxGeometry x="84" y="190" width="510" height="170" as="geometry" />
        </mxCell>
        <mxCell id="w7QyJEjS1cD8GBYXfVEJ-3" value="View Server" style="rounded=0;whiteSpace=wrap;html=1;fillColor=#d5e8d4;strokeColor=#82b366;verticalAlign=top;" vertex="1" parent="1">
          <mxGeometry x="104" y="220" width="230" height="110" as="geometry" />
        </mxCell>
        <mxCell id="tGiQ44Livhm7h5VKEygn-5" value="OMVS" style="rounded=1;whiteSpace=wrap;html=1;fillColor=#e1d5e7;strokeColor=#9673a6;opacity=80;" vertex="1" parent="1">
          <mxGeometry x="114" y="250" width="80" height="40" as="geometry" />
        </mxCell>
        <mxCell id="tGiQ44Livhm7h5VKEygn-6" value="OMVS" style="rounded=1;whiteSpace=wrap;html=1;fillColor=#e1d5e7;strokeColor=#9673a6;opacity=80;" vertex="1" parent="1">
          <mxGeometry x="124" y="260" width="80" height="40" as="geometry" />
        </mxCell>
        <mxCell id="tGiQ44Livhm7h5VKEygn-7" value="OMVS" style="rounded=1;whiteSpace=wrap;html=1;fillColor=#e1d5e7;strokeColor=#9673a6;opacity=80;" vertex="1" parent="1">
          <mxGeometry x="134" y="270" width="80" height="40" as="geometry" />
        </mxCell>
        <mxCell id="tGiQ44Livhm7h5VKEygn-8" value="OMVS" style="rounded=1;whiteSpace=wrap;html=1;fillColor=#e1d5e7;strokeColor=#9673a6;opacity=80;" vertex="1" parent="1">
          <mxGeometry x="144" y="280" width="80" height="40" as="geometry" />
        </mxCell>
        <mxCell id="tGiQ44Livhm7h5VKEygn-75" style="edgeStyle=orthogonalEdgeStyle;rounded=0;orthogonalLoop=1;jettySize=auto;html=1;exitX=0.75;exitY=1;exitDx=0;exitDy=0;entryX=0.5;entryY=0;entryDx=0;entryDy=0;" edge="1" parent="1" source="tGiQ44Livhm7h5VKEygn-1" target="tGiQ44Livhm7h5VKEygn-57">
          <mxGeometry relative="1" as="geometry">
            <Array as="points">
              <mxPoint x="297" y="440" />
              <mxPoint x="582" y="440" />
            </Array>
          </mxGeometry>
        </mxCell>
        <mxCell id="tGiQ44Livhm7h5VKEygn-76" style="edgeStyle=orthogonalEdgeStyle;rounded=0;orthogonalLoop=1;jettySize=auto;html=1;exitX=0.25;exitY=1;exitDx=0;exitDy=0;" edge="1" parent="1" source="tGiQ44Livhm7h5VKEygn-1" target="tGiQ44Livhm7h5VKEygn-43">
          <mxGeometry relative="1" as="geometry" />
        </mxCell>
        <mxCell id="tGiQ44Livhm7h5VKEygn-1" value="Runtime Manager&lt;div&gt;OMVS&lt;/div&gt;" style="rounded=1;whiteSpace=wrap;html=1;fillColor=#e1d5e7;strokeColor=#9673a6;shadow=1;" vertex="1" parent="1">
          <mxGeometry x="214" y="260" width="110" height="60" as="geometry" />
        </mxCell>
        <mxCell id="tGiQ44Livhm7h5VKEygn-9" value="View Server" style="rounded=0;whiteSpace=wrap;html=1;fillColor=#d5e8d4;strokeColor=#82b366;verticalAlign=top;" vertex="1" parent="1">
          <mxGeometry x="349" y="220" width="230" height="110" as="geometry" />
        </mxCell>
        <mxCell id="tGiQ44Livhm7h5VKEygn-10" value="OMVS" style="rounded=1;whiteSpace=wrap;html=1;fillColor=#e1d5e7;strokeColor=#9673a6;opacity=80;" vertex="1" parent="1">
          <mxGeometry x="359" y="250" width="80" height="40" as="geometry" />
        </mxCell>
        <mxCell id="tGiQ44Livhm7h5VKEygn-11" value="OMVS" style="rounded=1;whiteSpace=wrap;html=1;fillColor=#e1d5e7;strokeColor=#9673a6;opacity=80;" vertex="1" parent="1">
          <mxGeometry x="369" y="260" width="80" height="40" as="geometry" />
        </mxCell>
        <mxCell id="tGiQ44Livhm7h5VKEygn-12" value="OMVS" style="rounded=1;whiteSpace=wrap;html=1;fillColor=#e1d5e7;strokeColor=#9673a6;opacity=80;" vertex="1" parent="1">
          <mxGeometry x="379" y="270" width="80" height="40" as="geometry" />
        </mxCell>
        <mxCell id="tGiQ44Livhm7h5VKEygn-13" value="OMVS" style="rounded=1;whiteSpace=wrap;html=1;fillColor=#e1d5e7;strokeColor=#9673a6;opacity=80;" vertex="1" parent="1">
          <mxGeometry x="389" y="280" width="80" height="40" as="geometry" />
        </mxCell>
        <mxCell id="tGiQ44Livhm7h5VKEygn-14" value="Runtime Manager&lt;div&gt;OMVS&lt;/div&gt;" style="rounded=1;whiteSpace=wrap;html=1;fillColor=#e1d5e7;strokeColor=#9673a6;shadow=1;" vertex="1" parent="1">
          <mxGeometry x="459" y="260" width="110" height="60" as="geometry" />
        </mxCell>
        <mxCell id="tGiQ44Livhm7h5VKEygn-21" value="" style="endArrow=none;html=1;rounded=0;strokeWidth=5;" edge="1" parent="1">
          <mxGeometry width="50" height="50" relative="1" as="geometry">
            <mxPoint x="41" y="400" as="sourcePoint" />
            <mxPoint x="681" y="400" as="targetPoint" />
          </mxGeometry>
        </mxCell>
        <mxCell id="tGiQ44Livhm7h5VKEygn-22" value="Firewall" style="text;html=1;align=center;verticalAlign=middle;resizable=0;points=[];autosize=1;strokeColor=none;fillColor=none;" vertex="1" parent="1">
          <mxGeometry x="684" y="385" width="60" height="30" as="geometry" />
        </mxCell>
        <mxCell id="tGiQ44Livhm7h5VKEygn-43" value="Backend OMAG Server Platform" style="rounded=0;whiteSpace=wrap;html=1;verticalAlign=top;fillColor=#fff2cc;strokeColor=#d6b656;" vertex="1" parent="1">
          <mxGeometry x="134" y="505" width="215" height="240" as="geometry" />
        </mxCell>
        <mxCell id="tGiQ44Livhm7h5VKEygn-46" style="edgeStyle=orthogonalEdgeStyle;rounded=0;orthogonalLoop=1;jettySize=auto;html=1;exitX=0.25;exitY=1;exitDx=0;exitDy=0;entryX=0.5;entryY=0;entryDx=0;entryDy=0;" edge="1" parent="1" source="tGiQ44Livhm7h5VKEygn-42" target="tGiQ44Livhm7h5VKEygn-44">
          <mxGeometry relative="1" as="geometry" />
        </mxCell>
        <mxCell id="tGiQ44Livhm7h5VKEygn-48" style="edgeStyle=orthogonalEdgeStyle;rounded=0;orthogonalLoop=1;jettySize=auto;html=1;exitX=0.75;exitY=1;exitDx=0;exitDy=0;" edge="1" parent="1" source="tGiQ44Livhm7h5VKEygn-42" target="tGiQ44Livhm7h5VKEygn-45">
          <mxGeometry relative="1" as="geometry" />
        </mxCell>
        <mxCell id="tGiQ44Livhm7h5VKEygn-42" value="Metadata&lt;div&gt;Access&lt;/div&gt;&lt;div&gt;Store&lt;/div&gt;" style="rounded=0;whiteSpace=wrap;html=1;fillColor=#d5e8d4;strokeColor=#82b366;" vertex="1" parent="1">
          <mxGeometry x="183.5" y="540" width="120" height="60" as="geometry" />
        </mxCell>
        <mxCell id="tGiQ44Livhm7h5VKEygn-44" value="Integration&lt;div&gt;Daemon&lt;/div&gt;" style="rounded=0;whiteSpace=wrap;html=1;fillColor=#d5e8d4;strokeColor=#82b366;" vertex="1" parent="1">
          <mxGeometry x="146" y="622" width="120" height="60" as="geometry" />
        </mxCell>
        <mxCell id="tGiQ44Livhm7h5VKEygn-45" value="Engine Host" style="rounded=0;whiteSpace=wrap;html=1;fillColor=#d5e8d4;strokeColor=#82b366;" vertex="1" parent="1">
          <mxGeometry x="214" y="670" width="120" height="60" as="geometry" />
        </mxCell>
        <mxCell id="tGiQ44Livhm7h5VKEygn-49" value="metadata" style="shape=cylinder3;whiteSpace=wrap;html=1;boundedLbl=1;backgroundOutline=1;size=4;fillColor=#d5e8d4;strokeColor=#82b366;" vertex="1" parent="1">
          <mxGeometry x="49" y="550" width="60" height="40" as="geometry" />
        </mxCell>
        <mxCell id="tGiQ44Livhm7h5VKEygn-50" style="edgeStyle=orthogonalEdgeStyle;rounded=0;orthogonalLoop=1;jettySize=auto;html=1;exitX=0;exitY=0.5;exitDx=0;exitDy=0;entryX=1;entryY=0.5;entryDx=0;entryDy=0;entryPerimeter=0;" edge="1" parent="1" source="tGiQ44Livhm7h5VKEygn-42" target="tGiQ44Livhm7h5VKEygn-49">
          <mxGeometry relative="1" as="geometry" />
        </mxCell>
        <mxCell id="tGiQ44Livhm7h5VKEygn-51" value="Protected metadata, processing and data" style="text;html=1;align=center;verticalAlign=middle;resizable=0;points=[];autosize=1;strokeColor=none;fillColor=none;" vertex="1" parent="1">
          <mxGeometry x="430" y="400" width="240" height="30" as="geometry" />
        </mxCell>
        <mxCell id="tGiQ44Livhm7h5VKEygn-77" style="edgeStyle=orthogonalEdgeStyle;rounded=0;orthogonalLoop=1;jettySize=auto;html=1;exitX=1;exitY=0;exitDx=0;exitDy=23.5;exitPerimeter=0;entryX=0;entryY=0.25;entryDx=0;entryDy=0;" edge="1" parent="1" source="tGiQ44Livhm7h5VKEygn-53" target="tGiQ44Livhm7h5VKEygn-69">
          <mxGeometry relative="1" as="geometry" />
        </mxCell>
        <mxCell id="tGiQ44Livhm7h5VKEygn-53" value="" style="shape=cylinder3;whiteSpace=wrap;html=1;boundedLbl=1;backgroundOutline=1;size=7;fillColor=#dae8fc;strokeColor=#6c8ebf;" vertex="1" parent="1">
          <mxGeometry x="146" y="762" width="60" height="80" as="geometry" />
        </mxCell>
        <mxCell id="tGiQ44Livhm7h5VKEygn-70" style="edgeStyle=orthogonalEdgeStyle;rounded=0;orthogonalLoop=1;jettySize=auto;html=1;exitX=1;exitY=0.5;exitDx=0;exitDy=0;exitPerimeter=0;entryX=0;entryY=0.5;entryDx=0;entryDy=0;" edge="1" parent="1" source="tGiQ44Livhm7h5VKEygn-54" target="tGiQ44Livhm7h5VKEygn-69">
          <mxGeometry relative="1" as="geometry" />
        </mxCell>
        <mxCell id="tGiQ44Livhm7h5VKEygn-54" value="" style="shape=cylinder3;whiteSpace=wrap;html=1;boundedLbl=1;backgroundOutline=1;size=7;fillColor=#dae8fc;strokeColor=#6c8ebf;" vertex="1" parent="1">
          <mxGeometry x="156" y="800" width="60" height="52" as="geometry" />
        </mxCell>
        <mxCell id="tGiQ44Livhm7h5VKEygn-55" value="" style="shape=cylinder3;whiteSpace=wrap;html=1;boundedLbl=1;backgroundOutline=1;size=7;fillColor=#dae8fc;strokeColor=#6c8ebf;" vertex="1" parent="1">
          <mxGeometry x="134" y="829" width="37" height="30" as="geometry" />
        </mxCell>
        <mxCell id="tGiQ44Livhm7h5VKEygn-56" style="edgeStyle=orthogonalEdgeStyle;rounded=0;orthogonalLoop=1;jettySize=auto;html=1;exitX=0.25;exitY=1;exitDx=0;exitDy=0;entryX=0.5;entryY=0;entryDx=0;entryDy=0;entryPerimeter=0;" edge="1" parent="1" source="tGiQ44Livhm7h5VKEygn-44" target="tGiQ44Livhm7h5VKEygn-53">
          <mxGeometry relative="1" as="geometry" />
        </mxCell>
        <mxCell id="tGiQ44Livhm7h5VKEygn-57" value="Backend OMAG Server Platform" style="rounded=0;whiteSpace=wrap;html=1;verticalAlign=top;fillColor=#fff2cc;strokeColor=#d6b656;" vertex="1" parent="1">
          <mxGeometry x="474" y="505" width="215" height="240" as="geometry" />
        </mxCell>
        <mxCell id="tGiQ44Livhm7h5VKEygn-58" style="edgeStyle=orthogonalEdgeStyle;rounded=0;orthogonalLoop=1;jettySize=auto;html=1;exitX=0.25;exitY=1;exitDx=0;exitDy=0;entryX=0.5;entryY=0;entryDx=0;entryDy=0;" edge="1" parent="1" source="tGiQ44Livhm7h5VKEygn-60" target="tGiQ44Livhm7h5VKEygn-61">
          <mxGeometry relative="1" as="geometry" />
        </mxCell>
        <mxCell id="tGiQ44Livhm7h5VKEygn-59" style="edgeStyle=orthogonalEdgeStyle;rounded=0;orthogonalLoop=1;jettySize=auto;html=1;exitX=0.75;exitY=1;exitDx=0;exitDy=0;" edge="1" parent="1" source="tGiQ44Livhm7h5VKEygn-60" target="tGiQ44Livhm7h5VKEygn-62">
          <mxGeometry relative="1" as="geometry" />
        </mxCell>
        <mxCell id="tGiQ44Livhm7h5VKEygn-60" value="Metadata&lt;div&gt;Access&lt;/div&gt;&lt;div&gt;Store&lt;/div&gt;" style="rounded=0;whiteSpace=wrap;html=1;fillColor=#d5e8d4;strokeColor=#82b366;" vertex="1" parent="1">
          <mxGeometry x="523.5" y="540" width="120" height="60" as="geometry" />
        </mxCell>
        <mxCell id="tGiQ44Livhm7h5VKEygn-61" value="Integration&lt;div&gt;Daemon&lt;/div&gt;" style="rounded=0;whiteSpace=wrap;html=1;fillColor=#d5e8d4;strokeColor=#82b366;" vertex="1" parent="1">
          <mxGeometry x="486" y="622" width="120" height="60" as="geometry" />
        </mxCell>
        <mxCell id="tGiQ44Livhm7h5VKEygn-62" value="Engine Host" style="rounded=0;whiteSpace=wrap;html=1;fillColor=#d5e8d4;strokeColor=#82b366;" vertex="1" parent="1">
          <mxGeometry x="554" y="670" width="120" height="60" as="geometry" />
        </mxCell>
        <mxCell id="tGiQ44Livhm7h5VKEygn-63" value="metadata" style="shape=cylinder3;whiteSpace=wrap;html=1;boundedLbl=1;backgroundOutline=1;size=4;fillColor=#d5e8d4;strokeColor=#82b366;" vertex="1" parent="1">
          <mxGeometry x="389" y="550" width="60" height="40" as="geometry" />
        </mxCell>
        <mxCell id="tGiQ44Livhm7h5VKEygn-64" style="edgeStyle=orthogonalEdgeStyle;rounded=0;orthogonalLoop=1;jettySize=auto;html=1;exitX=0;exitY=0.5;exitDx=0;exitDy=0;entryX=1;entryY=0.5;entryDx=0;entryDy=0;entryPerimeter=0;" edge="1" parent="1" source="tGiQ44Livhm7h5VKEygn-60" target="tGiQ44Livhm7h5VKEygn-63">
          <mxGeometry relative="1" as="geometry" />
        </mxCell>
        <mxCell id="tGiQ44Livhm7h5VKEygn-65" value="" style="shape=cylinder3;whiteSpace=wrap;html=1;boundedLbl=1;backgroundOutline=1;size=7;fillColor=#dae8fc;strokeColor=#6c8ebf;" vertex="1" parent="1">
          <mxGeometry x="486" y="762" width="60" height="80" as="geometry" />
        </mxCell>
        <mxCell id="tGiQ44Livhm7h5VKEygn-66" value="" style="shape=cylinder3;whiteSpace=wrap;html=1;boundedLbl=1;backgroundOutline=1;size=7;fillColor=#dae8fc;strokeColor=#6c8ebf;" vertex="1" parent="1">
          <mxGeometry x="496" y="800" width="60" height="52" as="geometry" />
        </mxCell>
        <mxCell id="tGiQ44Livhm7h5VKEygn-67" value="" style="shape=cylinder3;whiteSpace=wrap;html=1;boundedLbl=1;backgroundOutline=1;size=7;fillColor=#dae8fc;strokeColor=#6c8ebf;" vertex="1" parent="1">
          <mxGeometry x="474" y="829" width="37" height="30" as="geometry" />
        </mxCell>
        <mxCell id="tGiQ44Livhm7h5VKEygn-68" style="edgeStyle=orthogonalEdgeStyle;rounded=0;orthogonalLoop=1;jettySize=auto;html=1;exitX=0.25;exitY=1;exitDx=0;exitDy=0;entryX=0.5;entryY=0;entryDx=0;entryDy=0;entryPerimeter=0;" edge="1" parent="1" source="tGiQ44Livhm7h5VKEygn-61" target="tGiQ44Livhm7h5VKEygn-65">
          <mxGeometry relative="1" as="geometry" />
        </mxCell>
        <mxCell id="tGiQ44Livhm7h5VKEygn-71" style="edgeStyle=orthogonalEdgeStyle;rounded=0;orthogonalLoop=1;jettySize=auto;html=1;exitX=1;exitY=0.5;exitDx=0;exitDy=0;" edge="1" parent="1" source="tGiQ44Livhm7h5VKEygn-69" target="tGiQ44Livhm7h5VKEygn-65">
          <mxGeometry relative="1" as="geometry" />
        </mxCell>
        <mxCell id="tGiQ44Livhm7h5VKEygn-69" value="Data Pipelines" style="rounded=1;whiteSpace=wrap;html=1;fillColor=#dae8fc;strokeColor=#6c8ebf;" vertex="1" parent="1">
          <mxGeometry x="289" y="782" width="120" height="60" as="geometry" />
        </mxCell>
        <mxCell id="tGiQ44Livhm7h5VKEygn-78" style="edgeStyle=orthogonalEdgeStyle;rounded=0;orthogonalLoop=1;jettySize=auto;html=1;exitX=1;exitY=0.75;exitDx=0;exitDy=0;entryX=0;entryY=0.5;entryDx=0;entryDy=0;entryPerimeter=0;" edge="1" parent="1" source="tGiQ44Livhm7h5VKEygn-69" target="tGiQ44Livhm7h5VKEygn-67">
          <mxGeometry relative="1" as="geometry" />
        </mxCell>
      </root>
    </mxGraphModel>
  </diagram>
  <diagram name="initial-deployment-example" id="fbyVMtDkJYEcHVcZZ99k">
    <mxGraphModel dx="1242" dy="806" grid="1" gridSize="10" guides="1" tooltips="1" connect="1" arrows="1" fold="1" page="1" pageScale="1" pageWidth="827" pageHeight="1169" math="0" shadow="0">
      <root>
        <mxCell id="IwTXNBJWtx-CHG9-j1eT-0" />
        <mxCell id="IwTXNBJWtx-CHG9-j1eT-1" parent="IwTXNBJWtx-CHG9-j1eT-0" />
        <mxCell id="IwTXNBJWtx-CHG9-j1eT-2" value="Default Local OMAG Server Platform" style="rounded=0;whiteSpace=wrap;html=1;verticalAlign=top;fillColor=#fff2cc;strokeColor=#d6b656;" vertex="1" parent="IwTXNBJWtx-CHG9-j1eT-1">
          <mxGeometry x="200" y="200" width="390" height="320" as="geometry" />
        </mxCell>
        <mxCell id="IwTXNBJWtx-CHG9-j1eT-3" style="edgeStyle=orthogonalEdgeStyle;rounded=0;orthogonalLoop=1;jettySize=auto;html=1;exitX=0.5;exitY=1;exitDx=0;exitDy=0;" edge="1" parent="IwTXNBJWtx-CHG9-j1eT-1" source="IwTXNBJWtx-CHG9-j1eT-4" target="IwTXNBJWtx-CHG9-j1eT-6">
          <mxGeometry relative="1" as="geometry" />
        </mxCell>
        <mxCell id="IwTXNBJWtx-CHG9-j1eT-4" value="view-server" style="rounded=0;whiteSpace=wrap;html=1;fillColor=#d5e8d4;strokeColor=#82b366;" vertex="1" parent="IwTXNBJWtx-CHG9-j1eT-1">
          <mxGeometry x="240" y="240" width="120" height="60" as="geometry" />
        </mxCell>
        <mxCell id="IwTXNBJWtx-CHG9-j1eT-5" style="edgeStyle=orthogonalEdgeStyle;rounded=0;orthogonalLoop=1;jettySize=auto;html=1;exitX=1;exitY=0.5;exitDx=0;exitDy=0;entryX=0.5;entryY=1;entryDx=0;entryDy=0;dashed=1;startArrow=classic;startFill=1;" edge="1" parent="IwTXNBJWtx-CHG9-j1eT-1" source="IwTXNBJWtx-CHG9-j1eT-6" target="IwTXNBJWtx-CHG9-j1eT-11">
          <mxGeometry relative="1" as="geometry" />
        </mxCell>
        <mxCell id="IwTXNBJWtx-CHG9-j1eT-6" value="active-metadata-&lt;div&gt;store&lt;/div&gt;" style="rounded=0;whiteSpace=wrap;html=1;fillColor=#d5e8d4;strokeColor=#82b366;" vertex="1" parent="IwTXNBJWtx-CHG9-j1eT-1">
          <mxGeometry x="240" y="330" width="120" height="60" as="geometry" />
        </mxCell>
        <mxCell id="IwTXNBJWtx-CHG9-j1eT-7" style="edgeStyle=orthogonalEdgeStyle;rounded=0;orthogonalLoop=1;jettySize=auto;html=1;exitX=0.5;exitY=0;exitDx=0;exitDy=0;" edge="1" parent="IwTXNBJWtx-CHG9-j1eT-1" source="IwTXNBJWtx-CHG9-j1eT-8" target="IwTXNBJWtx-CHG9-j1eT-6">
          <mxGeometry relative="1" as="geometry" />
        </mxCell>
        <mxCell id="IwTXNBJWtx-CHG9-j1eT-8" value="integration-daemon" style="rounded=0;whiteSpace=wrap;html=1;fillColor=#d5e8d4;strokeColor=#82b366;" vertex="1" parent="IwTXNBJWtx-CHG9-j1eT-1">
          <mxGeometry x="380" y="440" width="120" height="60" as="geometry" />
        </mxCell>
        <mxCell id="IwTXNBJWtx-CHG9-j1eT-9" style="edgeStyle=orthogonalEdgeStyle;rounded=0;orthogonalLoop=1;jettySize=auto;html=1;exitX=0.5;exitY=0;exitDx=0;exitDy=0;entryX=0.5;entryY=1;entryDx=0;entryDy=0;" edge="1" parent="IwTXNBJWtx-CHG9-j1eT-1" source="IwTXNBJWtx-CHG9-j1eT-10" target="IwTXNBJWtx-CHG9-j1eT-6">
          <mxGeometry relative="1" as="geometry" />
        </mxCell>
        <mxCell id="IwTXNBJWtx-CHG9-j1eT-10" value="engine-host" style="rounded=0;whiteSpace=wrap;html=1;fillColor=#d5e8d4;strokeColor=#82b366;" vertex="1" parent="IwTXNBJWtx-CHG9-j1eT-1">
          <mxGeometry x="240" y="440" width="120" height="60" as="geometry" />
        </mxCell>
        <mxCell id="IwTXNBJWtx-CHG9-j1eT-11" value="simple-metadata-store" style="rounded=0;whiteSpace=wrap;html=1;fillColor=#d5e8d4;strokeColor=#82b366;" vertex="1" parent="IwTXNBJWtx-CHG9-j1eT-1">
          <mxGeometry x="430" y="260" width="120" height="60" as="geometry" />
        </mxCell>
        <mxCell id="IwTXNBJWtx-CHG9-j1eT-12" value="view-server" style="rounded=0;whiteSpace=wrap;html=1;verticalAlign=top;fillColor=#d5e8d4;strokeColor=#82b366;" vertex="1" parent="IwTXNBJWtx-CHG9-j1eT-1">
          <mxGeometry x="221" y="670" width="780" height="200" as="geometry" />
        </mxCell>
        <mxCell id="IwTXNBJWtx-CHG9-j1eT-13" value="Runtime Manager OMVS" style="rounded=1;whiteSpace=wrap;html=1;verticalAlign=top;fillColor=#e1d5e7;strokeColor=#9673a6;" vertex="1" parent="IwTXNBJWtx-CHG9-j1eT-1">
          <mxGeometry x="239" y="710" width="745" height="130" as="geometry" />
        </mxCell>
        <mxCell id="IwTXNBJWtx-CHG9-j1eT-14" value="OMAG Server Platform" style="rounded=0;whiteSpace=wrap;html=1;fillColor=#fff2cc;strokeColor=#d6b656;" vertex="1" parent="IwTXNBJWtx-CHG9-j1eT-1">
          <mxGeometry x="280" y="918" width="120" height="60" as="geometry" />
        </mxCell>
        <mxCell id="IwTXNBJWtx-CHG9-j1eT-15" value="OMAG Server Platform Connector" style="ellipse;whiteSpace=wrap;html=1;" vertex="1" parent="IwTXNBJWtx-CHG9-j1eT-1">
          <mxGeometry x="280" y="740" width="120" height="80" as="geometry" />
        </mxCell>
        <mxCell id="IwTXNBJWtx-CHG9-j1eT-16" value="Cohort" style="text;html=1;align=center;verticalAlign=middle;resizable=0;points=[];autosize=1;strokeColor=none;fillColor=none;" vertex="1" parent="IwTXNBJWtx-CHG9-j1eT-1">
          <mxGeometry x="400" y="330" width="60" height="30" as="geometry" />
        </mxCell>
        <mxCell id="IwTXNBJWtx-CHG9-j1eT-17" style="edgeStyle=orthogonalEdgeStyle;rounded=0;orthogonalLoop=1;jettySize=auto;html=1;exitX=0.5;exitY=1;exitDx=0;exitDy=0;" edge="1" parent="IwTXNBJWtx-CHG9-j1eT-1" source="IwTXNBJWtx-CHG9-j1eT-18" target="IwTXNBJWtx-CHG9-j1eT-29">
          <mxGeometry relative="1" as="geometry" />
        </mxCell>
        <mxCell id="IwTXNBJWtx-CHG9-j1eT-18" value="Engine Host Connector" style="ellipse;whiteSpace=wrap;html=1;" vertex="1" parent="IwTXNBJWtx-CHG9-j1eT-1">
          <mxGeometry x="414" y="740" width="120" height="80" as="geometry" />
        </mxCell>
        <mxCell id="IwTXNBJWtx-CHG9-j1eT-19" style="edgeStyle=orthogonalEdgeStyle;rounded=0;orthogonalLoop=1;jettySize=auto;html=1;exitX=0.5;exitY=1;exitDx=0;exitDy=0;" edge="1" parent="IwTXNBJWtx-CHG9-j1eT-1" source="IwTXNBJWtx-CHG9-j1eT-20" target="IwTXNBJWtx-CHG9-j1eT-28">
          <mxGeometry relative="1" as="geometry" />
        </mxCell>
        <mxCell id="IwTXNBJWtx-CHG9-j1eT-20" value="Integration Daemon Connector" style="ellipse;whiteSpace=wrap;html=1;" vertex="1" parent="IwTXNBJWtx-CHG9-j1eT-1">
          <mxGeometry x="550" y="740" width="120" height="80" as="geometry" />
        </mxCell>
        <mxCell id="IwTXNBJWtx-CHG9-j1eT-21" style="edgeStyle=orthogonalEdgeStyle;rounded=0;orthogonalLoop=1;jettySize=auto;html=1;exitX=0.5;exitY=1;exitDx=0;exitDy=0;" edge="1" parent="IwTXNBJWtx-CHG9-j1eT-1" source="IwTXNBJWtx-CHG9-j1eT-23" target="IwTXNBJWtx-CHG9-j1eT-27">
          <mxGeometry relative="1" as="geometry" />
        </mxCell>
        <mxCell id="IwTXNBJWtx-CHG9-j1eT-22" style="edgeStyle=orthogonalEdgeStyle;rounded=0;orthogonalLoop=1;jettySize=auto;html=1;exitX=0.5;exitY=1;exitDx=0;exitDy=0;" edge="1" parent="IwTXNBJWtx-CHG9-j1eT-1" source="IwTXNBJWtx-CHG9-j1eT-23" target="IwTXNBJWtx-CHG9-j1eT-30">
          <mxGeometry relative="1" as="geometry">
            <Array as="points">
              <mxPoint x="750" y="890" />
              <mxPoint x="860" y="890" />
            </Array>
          </mxGeometry>
        </mxCell>
        <mxCell id="IwTXNBJWtx-CHG9-j1eT-23" value="Metadata Access Server Connector" style="ellipse;whiteSpace=wrap;html=1;" vertex="1" parent="IwTXNBJWtx-CHG9-j1eT-1">
          <mxGeometry x="690" y="740" width="120" height="80" as="geometry" />
        </mxCell>
        <mxCell id="IwTXNBJWtx-CHG9-j1eT-24" style="edgeStyle=orthogonalEdgeStyle;rounded=0;orthogonalLoop=1;jettySize=auto;html=1;exitX=0.5;exitY=1;exitDx=0;exitDy=0;entryX=1;entryY=0.5;entryDx=0;entryDy=0;" edge="1" parent="IwTXNBJWtx-CHG9-j1eT-1" source="IwTXNBJWtx-CHG9-j1eT-25" target="IwTXNBJWtx-CHG9-j1eT-12">
          <mxGeometry relative="1" as="geometry">
            <Array as="points">
              <mxPoint x="887" y="900" />
              <mxPoint x="1050" y="900" />
              <mxPoint x="1050" y="770" />
            </Array>
          </mxGeometry>
        </mxCell>
        <mxCell id="IwTXNBJWtx-CHG9-j1eT-25" value="View Server Connector" style="ellipse;whiteSpace=wrap;html=1;" vertex="1" parent="IwTXNBJWtx-CHG9-j1eT-1">
          <mxGeometry x="827" y="740" width="120" height="80" as="geometry" />
        </mxCell>
        <mxCell id="IwTXNBJWtx-CHG9-j1eT-26" style="edgeStyle=orthogonalEdgeStyle;rounded=0;orthogonalLoop=1;jettySize=auto;html=1;exitX=0.5;exitY=1;exitDx=0;exitDy=0;" edge="1" parent="IwTXNBJWtx-CHG9-j1eT-1" source="IwTXNBJWtx-CHG9-j1eT-15" target="IwTXNBJWtx-CHG9-j1eT-14">
          <mxGeometry relative="1" as="geometry" />
        </mxCell>
        <mxCell id="IwTXNBJWtx-CHG9-j1eT-27" value="active-&lt;div&gt;metadata-store&lt;/div&gt;" style="rounded=0;whiteSpace=wrap;html=1;fillColor=#d5e8d4;strokeColor=#82b366;" vertex="1" parent="IwTXNBJWtx-CHG9-j1eT-1">
          <mxGeometry x="690" y="918" width="120" height="60" as="geometry" />
        </mxCell>
        <mxCell id="IwTXNBJWtx-CHG9-j1eT-28" value="integration-daemon" style="rounded=0;whiteSpace=wrap;html=1;fillColor=#d5e8d4;strokeColor=#82b366;" vertex="1" parent="IwTXNBJWtx-CHG9-j1eT-1">
          <mxGeometry x="550" y="918" width="120" height="60" as="geometry" />
        </mxCell>
        <mxCell id="IwTXNBJWtx-CHG9-j1eT-29" value="engine-host" style="rounded=0;whiteSpace=wrap;html=1;fillColor=#d5e8d4;strokeColor=#82b366;" vertex="1" parent="IwTXNBJWtx-CHG9-j1eT-1">
          <mxGeometry x="414" y="918" width="120" height="60" as="geometry" />
        </mxCell>
        <mxCell id="IwTXNBJWtx-CHG9-j1eT-30" value="simple-&lt;div&gt;metadata-store&lt;/div&gt;" style="rounded=0;whiteSpace=wrap;html=1;fillColor=#d5e8d4;strokeColor=#82b366;" vertex="1" parent="IwTXNBJWtx-CHG9-j1eT-1">
          <mxGeometry x="820" y="918" width="120" height="60" as="geometry" />
        </mxCell>
      </root>
    </mxGraphModel>
  </diagram>
  <diagram id="mp1F4MbYmNd0BQP0G9Qt" name="Page-4">
    <mxGraphModel dx="1354" dy="998" grid="1" gridSize="10" guides="1" tooltips="1" connect="1" arrows="1" fold="1" page="1" pageScale="1" pageWidth="827" pageHeight="1169" math="0" shadow="0">
      <root>
        <mxCell id="0" />
        <mxCell id="1" parent="0" />
        <mxCell id="gvIGClQGBgWJqVfNq0W_-13" value="**Move Weekly Measurements File**&#xa;*nwait_time*: 0&#xa;*nmult_trig*: True" style="rounded=1;absoluteArcSize=1;arcSize=14;whiteSpace=wrap;strokeWidth=2;" vertex="1" parent="1">
          <mxGeometry x="20" y="71" width="155" height="86" as="geometry" />
        </mxCell>
        <mxCell id="gvIGClQGBgWJqVfNq0W_-14" value="**Seek and validate origin**&#xa;*wait_time*: 0&#xa;*mult_trig*: True" style="rounded=1;absoluteArcSize=1;arcSize=14;whiteSpace=wrap;strokeWidth=2;" vertex="1" parent="1">
          <mxGeometry x="384" y="20" width="195" height="69" as="geometry" />
        </mxCell>
        <mxCell id="gvIGClQGBgWJqVfNq0W_-15" value="**SetRetentionPeriod.**&#xa;*wait_time*: 0&#xa;*mult_trig*: True" style="rounded=1;absoluteArcSize=1;arcSize=14;whiteSpace=wrap;strokeWidth=2;" vertex="1" parent="1">
          <mxGeometry x="809" y="20" width="166" height="69" as="geometry" />
        </mxCell>
        <mxCell id="gvIGClQGBgWJqVfNq0W_-16" value="**Publish asset.**&#xa;*wait_time*: 0&#xa;*mult_trig*: True" style="rounded=1;absoluteArcSize=1;arcSize=14;whiteSpace=wrap;strokeWidth=2;" vertex="1" parent="1">
          <mxGeometry x="1278" y="79" width="130" height="69" as="geometry" />
        </mxCell>
        <mxCell id="gvIGClQGBgWJqVfNq0W_-17" value="**Check quality of data**&#xa;*wait_time*: 0&#xa;*mult_trig*: True" style="rounded=1;absoluteArcSize=1;arcSize=14;whiteSpace=wrap;strokeWidth=2;" vertex="1" parent="1">
          <mxGeometry x="395" y="139" width="174" height="69" as="geometry" />
        </mxCell>
        <mxCell id="gvIGClQGBgWJqVfNq0W_-18" value="**Check for quality issues**&#xa;*wait_time*: 0&#xa;*mult_trig*: True" style="rounded=1;absoluteArcSize=1;arcSize=14;whiteSpace=wrap;strokeWidth=2;" vertex="1" parent="1">
          <mxGeometry x="795" y="139" width="192" height="69" as="geometry" />
        </mxCell>
        <mxCell id="gvIGClQGBgWJqVfNq0W_-19" value="provisioning-complete" style="curved=1;startArrow=none;endArrow=block;exitX=1;exitY=0.2;entryX=0;entryY=0.5;rounded=0;" edge="1" parent="1" source="gvIGClQGBgWJqVfNq0W_-13" target="gvIGClQGBgWJqVfNq0W_-14">
          <mxGeometry relative="1" as="geometry">
            <Array as="points">
              <mxPoint x="280" y="54" />
            </Array>
          </mxGeometry>
        </mxCell>
        <mxCell id="gvIGClQGBgWJqVfNq0W_-20" value="origin-assigned" style="curved=1;startArrow=none;endArrow=block;exitX=1;exitY=0.37;entryX=0;entryY=0.38;rounded=0;" edge="1" parent="1" source="gvIGClQGBgWJqVfNq0W_-14" target="gvIGClQGBgWJqVfNq0W_-15">
          <mxGeometry relative="1" as="geometry">
            <Array as="points">
              <mxPoint x="687" y="35" />
            </Array>
          </mxGeometry>
        </mxCell>
        <mxCell id="gvIGClQGBgWJqVfNq0W_-21" value="Mandatory:classification-assigned" style="curved=1;startArrow=none;endArrow=block;exitX=1;exitY=0.5;entryX=0;entryY=0.24;rounded=0;" edge="1" parent="1" source="gvIGClQGBgWJqVfNq0W_-15" target="gvIGClQGBgWJqVfNq0W_-16">
          <mxGeometry relative="1" as="geometry">
            <Array as="points">
              <mxPoint x="1133" y="54" />
            </Array>
          </mxGeometry>
        </mxCell>
        <mxCell id="gvIGClQGBgWJqVfNq0W_-22" value="origin-already-assigned" style="curved=1;startArrow=none;endArrow=block;exitX=1;exitY=0.77;entryX=0;entryY=0.73;rounded=0;" edge="1" parent="1" source="gvIGClQGBgWJqVfNq0W_-14" target="gvIGClQGBgWJqVfNq0W_-15">
          <mxGeometry relative="1" as="geometry">
            <Array as="points">
              <mxPoint x="687" y="94" />
            </Array>
          </mxGeometry>
        </mxCell>
        <mxCell id="gvIGClQGBgWJqVfNq0W_-23" value="provisioning-complete" style="curved=1;startArrow=none;endArrow=block;exitX=1;exitY=0.79;entryX=0;entryY=0.49;rounded=0;" edge="1" parent="1" source="gvIGClQGBgWJqVfNq0W_-13" target="gvIGClQGBgWJqVfNq0W_-17">
          <mxGeometry relative="1" as="geometry">
            <Array as="points">
              <mxPoint x="280" y="173" />
            </Array>
          </mxGeometry>
        </mxCell>
        <mxCell id="gvIGClQGBgWJqVfNq0W_-24" value="survey-completed" style="curved=1;startArrow=none;endArrow=block;exitX=1;exitY=0.49;entryX=0;entryY=0.49;rounded=0;" edge="1" parent="1" source="gvIGClQGBgWJqVfNq0W_-17" target="gvIGClQGBgWJqVfNq0W_-18">
          <mxGeometry relative="1" as="geometry">
            <Array as="points" />
          </mxGeometry>
        </mxCell>
        <mxCell id="gvIGClQGBgWJqVfNq0W_-25" value="Mandatory:actions-actioned" style="curved=1;startArrow=none;endArrow=block;exitX=1;exitY=0.49;entryX=0;entryY=0.77;rounded=0;" edge="1" parent="1" source="gvIGClQGBgWJqVfNq0W_-18" target="gvIGClQGBgWJqVfNq0W_-16">
          <mxGeometry relative="1" as="geometry">
            <Array as="points">
              <mxPoint x="1133" y="173" />
            </Array>
          </mxGeometry>
        </mxCell>
      </root>
    </mxGraphModel>
  </diagram>
</mxfile>
